<svg width="113" height="116" viewBox="0 0 113 116" fill="none" xmlns="http://www.w3.org/2000/svg">
<circle cx="56" cy="58" r="41" fill="#C7E589"/>
<path d="M90.5 96C80.8 105 68.2 110 55 110C37.4 110 21 101 11.4 86.3L27.9 76.9C34.1 85.7 44.2 91 55 91C56.7 91 58 89.7 58 88C58 86.3 56.7 85 55 85C45.3 85 36.4 79.8 31.5 71.4C30.7 70 28.8 69.5 27.4 70.3L5.7 82.6C5 83 4.5 83.6 4.3 84.4C4.1 85.2 4.2 86 4.6 86.7C14.9 104.8 34.2 116 55 116C69.8 116 83.8 110.5 94.6 100.4C95.8 99.3 95.9 97.4 94.7 96.2C93.6 94.9 91.7 94.9 90.5 96Z" fill="#253209"/>
<path d="M55 0C53.3 0 52 1.3 52 3V28C52 29.7 53.3 31 55 31C69.9 31 82 43.1 82 58C82 62.8 80.7 67.5 78.3 71.6C77.9 72.3 77.8 73.1 78 73.9C78.2 74.7 78.7 75.3 79.4 75.7L101 88.2C101.5 88.5 102 88.6 102.5 88.6C103.5 88.6 104.5 88.1 105.1 87.1C110.2 78.3 113 68.2 113 58C113 26 87 0 55 0ZM101.4 81.5L84.9 71.9C86.9 67.6 88 62.8 88 58C88 40.8 74.8 26.7 58 25.1V6.1C85.3 7.7 107 30.3 107 58C107 66.2 105.1 74.2 101.4 81.5Z" fill="#253209"/>
<path d="M72 86C73.6569 86 75 84.6569 75 83C75 81.3431 73.6569 80 72 80C70.3431 80 69 81.3431 69 83C69 84.6569 70.3431 86 72 86Z" fill="#253209"/>
<path d="M6.6 75.2L23.9 65.3C25 64.7 25.5 63.5 25.4 62.3C25.1 60.9 25 59.4 25 58C25 45.3 32.9 34.4 44.1 30C45.3 29.6 46 28.4 46 27.2V7.4C46 5.5 44.2 4 42.4 4.5C18.1 10.2 0 32 0 58C0 63.4 0.8 68.6 2.2 73.5C2.8 75.3 4.9 76.2 6.6 75.2Z" fill="#253209"/>
</svg>
