<svg width="126" height="96" viewBox="0 0 126 96" fill="none" xmlns="http://www.w3.org/2000/svg">
<circle cx="63" cy="48" r="41" fill="#C7E589"/>
<path d="M27 73V43C27 41.3 25.7 40 24 40H6C4.3 40 3 41.3 3 43V73C3 74.7 4.3 76 6 76H24C25.7 76 27 74.7 27 73ZM21 70H9V46H21V70Z" fill="#253209"/>
<path d="M38 76H56C57.7 76 59 74.7 59 73V13C59 11.3 57.7 10 56 10H38C36.3 10 35 11.3 35 13V73C35 74.7 36.3 76 38 76ZM41 16H53V70H41V16Z" fill="#253209"/>
<path d="M70 76H88C89.7 76 91 74.7 91 73V33C91 31.3 89.7 30 88 30H70C68.3 30 67 31.3 67 33V73C67 74.7 68.3 76 70 76ZM73 36H85V70H73V36Z" fill="#253209"/>
<path d="M102 76H120C121.7 76 123 74.7 123 73V3C123 1.3 121.7 0 120 0H102C100.3 0 99 1.3 99 3V73C99 74.7 100.3 76 102 76ZM105 6H117V70H105V6Z" fill="#253209"/>
<path d="M123 90H23C21.3 90 20 91.3 20 93C20 94.7 21.3 96 23 96H123C124.7 96 126 94.7 126 93C126 91.3 124.7 90 123 90Z" fill="#253209"/>
<path d="M3 96C4.65685 96 6 94.6569 6 93C6 91.3431 4.65685 90 3 90C1.34315 90 0 91.3431 0 93C0 94.6569 1.34315 96 3 96Z" fill="#253209"/>
</svg>
