<svg width="127" height="127" viewBox="0 0 127 127" fill="none" xmlns="http://www.w3.org/2000/svg">
<circle cx="71" cy="63" r="41" fill="#C7E589"/>
<path d="M4.8 120.6C4.6 120.5 4.5 120.4 4.3 120.3C4.1 120.2 3.9 120.2 3.7 120.1C2.7 119.9 1.7 120.2 1 120.9C0.9 121 0.7 121.2 0.6 121.4C0.5 121.6 0.4 121.7 0.3 121.9C0.2 122.1 0.2 122.3 0.1 122.5C0.1 122.7 0 122.9 0 123.1C0 123.9 0.3 124.7 0.9 125.2C1.5 125.8 2.2 126.1 3 126.1C3.2 126.1 3.4 126.1 3.6 126C3.8 126 4 125.9 4.2 125.8C4.4 125.7 4.6 125.6 4.7 125.5C4.9 125.4 5 125.3 5.1 125.1C5.2 125 5.4 124.8 5.5 124.7C5.6 124.5 5.7 124.4 5.8 124.2C5.9 124 5.9 123.8 6 123.6C6 123.4 6.1 123.2 6.1 123C6.1 122.2 5.8 121.4 5.2 120.9C5.1 120.8 4.9 120.7 4.8 120.6Z" fill="#253209"/>
<path d="M123.1 120.1H23.1C21.4 120.1 20.1 121.4 20.1 123.1C20.1 124.8 21.4 126.1 23.1 126.1H123.1C124.8 126.1 126.1 124.8 126.1 123.1C126.1 121.4 124.8 120.1 123.1 120.1Z" fill="#253209"/>
<path d="M20.9 80.6L42 53.3C43.3 53.8 44.6 54.1 46.1 54.1C48.6 54.1 50.8 53.3 52.7 51.9L65.9 62C65.4 63.3 65.1 64.7 65.1 66.1C65.1 72.2 70 77.1 76.1 77.1C82.2 77.1 87.1 72.2 87.1 66.1C87.1 63.5 86.2 61.1 84.7 59.2L111.5 21.4C112.6 21.8 113.9 22 115.2 22C121.3 22 126.2 17.1 126.2 11C126.2 4.9 121.3 0 115.2 0C109.1 0 104.2 4.9 104.2 11C104.2 13.6 105.1 16 106.6 17.9L79.8 55.7C78.6 55.3 77.4 55.1 76.1 55.1C73.6 55.1 71.4 55.9 69.5 57.3L56.3 47.2C56.8 45.9 57.1 44.6 57.1 43.1C57.1 37 52.2 32.1 46.1 32.1C40 32.1 35.1 37 35.1 43.1C35.1 45.5 35.9 47.8 37.3 49.6L16.2 76.9C14.9 76.4 13.5 76.1 12.1 76.1C6 76.1 1.1 81 1.1 87.1C1.1 93.2 6 98.1 12.1 98.1C18.2 98.1 23.1 93.2 23.1 87.1C23.1 84.7 22.3 82.4 20.9 80.6ZM115.1 6.1C117.9 6.1 120.1 8.3 120.1 11.1C120.1 13.9 117.9 16.1 115.1 16.1C112.3 16.1 110.1 13.9 110.1 11.1C110.1 8.3 112.3 6.1 115.1 6.1ZM76.1 61.1C78.9 61.1 81.1 63.3 81.1 66.1C81.1 68.9 78.9 71.1 76.1 71.1C73.3 71.1 71.1 68.9 71.1 66.1C71.1 63.3 73.3 61.1 76.1 61.1ZM46.1 38.1C48.9 38.1 51.1 40.3 51.1 43.1C51.1 45.9 48.9 48.1 46.1 48.1C43.3 48.1 41.1 45.9 41.1 43.1C41.1 40.3 43.3 38.1 46.1 38.1ZM12.1 92.1C9.3 92.1 7.1 89.9 7.1 87.1C7.1 84.3 9.3 82.1 12.1 82.1C14.9 82.1 17.1 84.3 17.1 87.1C17.1 89.9 14.9 92.1 12.1 92.1Z" fill="#253209"/>
</svg>
