<svg width="512" height="512" viewBox="0 0 512 512" fill="none" xmlns="http://www.w3.org/2000/svg">
<g clip-path="url(#clip0)">
<path d="M501.873 136.963C479.516 80.075 410.647 45.96 352.317 68.536C285.735 94.305 307.811 200.209 247.334 221.624C214.665 233.192 166.371 189.98 133.365 183.353C72.544 171.143 17.484 214.058 3.92597 273.487C-9.90603 334.117 12.279 415.097 78.893 431.553C158.243 451.155 199.576 379.824 266.142 359.342C334.452 338.323 410.405 387.964 466.956 327.566C508.736 282.945 524.011 193.294 501.873 136.963V136.963Z" fill="#1E293B"/>
<path opacity="0.11" d="M334.75 47H128.75C117.152 47 107.75 56.402 107.75 68V136.702C91.317 141.397 79.286 156.485 79.286 174.386C79.286 192.287 91.318 207.376 107.75 212.07V470C107.75 481.598 117.152 491 128.75 491H334.75C346.348 491 355.75 481.598 355.75 470V68C355.75 56.402 346.348 47 334.75 47Z" fill="#BFDBFE"/>
<path d="M379.75 47V449C379.75 460.598 370.348 470 358.75 470H152.75C141.152 470 131.75 460.598 131.75 449V47C131.75 35.402 141.152 26 152.75 26H358.75C370.348 26 379.75 35.402 379.75 47Z" fill="#0F172A"/>
<path d="M379.75 80.001V47C379.75 35.402 370.348 26 358.75 26H152.75C141.152 26 131.75 35.402 131.75 47V80L379.75 80.001Z" fill="#1E40AF"/>
<path d="M166.833 59.786C169.92 59.786 172.423 57.2833 172.423 54.196C172.423 51.1087 169.92 48.606 166.833 48.606C163.746 48.606 161.243 51.1087 161.243 54.196C161.243 57.2833 163.746 59.786 166.833 59.786Z" fill="#DB2777"/>
<path d="M186.743 59.786C189.83 59.786 192.333 57.2833 192.333 54.196C192.333 51.1087 189.83 48.606 186.743 48.606C183.656 48.606 181.153 51.1087 181.153 54.196C181.153 57.2833 183.656 59.786 186.743 59.786Z" fill="#FDE047"/>
<path d="M206.654 48.606C209.741 48.606 212.244 51.109 212.244 54.196C212.244 57.283 209.741 59.786 206.654 59.786C203.567 59.786 201.064 57.283 201.064 54.196C201.064 51.109 203.567 48.606 206.654 48.606V48.606Z" fill="#22C55E"/>
<path d="M130.075 198.299C151.748 198.299 169.318 180.729 169.318 159.056C169.318 137.383 151.748 119.813 130.075 119.813C108.402 119.813 90.832 137.383 90.832 159.056C90.832 180.729 108.402 198.299 130.075 198.299Z" fill="#4D7C0F"/>
<path d="M298.75 311V372C298.75 374.761 296.512 377 293.75 377H268.75C265.989 377 263.75 374.761 263.75 372V311C263.75 308.239 265.989 306 268.75 306H293.75C296.512 306 298.75 308.239 298.75 311Z" fill="#2563EB"/>
<path d="M197.75 311V372C197.75 374.761 195.511 377 192.75 377H167.75C164.989 377 162.75 374.761 162.75 372V311C162.75 308.239 164.989 306 167.75 306H192.75C195.511 306 197.75 308.239 197.75 311Z" fill="#60A5FA"/>
<path d="M248.75 292V373C248.75 375.761 246.511 378 243.75 378H218.75C215.989 378 213.75 375.761 213.75 373V292C213.75 289.239 215.989 287 218.75 287H243.75C246.511 287 248.75 289.239 248.75 292Z" fill="#60A5FA"/>
<path d="M348.75 256V372C348.75 374.761 346.512 377 343.75 377H318.75C315.989 377 313.75 374.761 313.75 372V256C313.75 253.239 315.989 251 318.75 251H343.75C346.512 251 348.75 253.239 348.75 256Z" fill="#1D4ED8"/>
<path d="M270.252 405H343.75C346.153 405 348.362 403.391 348.835 401.035C349.48 397.821 347.038 395 343.939 395H270.064C266.964 395 264.524 397.821 265.168 401.035C265.64 403.391 267.849 405 270.252 405V405Z" fill="#BFDBFE"/>
<path d="M359.727 475H304.335C304.064 475 303.794 474.899 303.598 474.712C299.023 470.353 302.044 465 306.313 465H356.065C366.384 465 374.749 456.635 374.749 446.316V189.475C374.749 189.204 374.85 188.934 375.037 188.738C379.396 184.163 384.749 187.184 384.749 191.453V449.977C384.75 463.797 373.547 475 359.727 475Z" fill="#475569"/>
<path d="M256 441.549C254.672 441.549 253.399 441.021 252.461 440.082L246.631 434.242C244.68 432.287 244.683 429.122 246.637 427.171C248.591 425.221 251.757 425.223 253.708 427.177L256 429.472L258.292 427.177C260.243 425.223 263.409 425.22 265.363 427.171C267.317 429.122 267.32 432.288 265.369 434.242L259.539 440.082C258.602 441.021 257.328 441.549 256 441.549Z" fill="#EC4899"/>
<path d="M358.749 21H152.75C138.391 21 126.75 32.641 126.75 47V114.493C103.699 115.99 85.4 135.208 85.4 158.631C85.4 182.054 103.699 201.273 126.75 202.769V450.355C126.75 463.966 137.784 475 151.395 475H279.83C280.101 475 280.371 474.899 280.567 474.712C285.142 470.353 282.121 465 277.851 465H152.75C143.913 465 136.75 457.837 136.75 449V202.443C157.766 199.034 173.865 180.767 173.865 158.802C173.865 136.837 157.766 118.571 136.75 115.162V85H374.75V163.102C374.75 165.507 376.361 167.718 378.719 168.188C381.931 168.828 384.75 166.395 384.75 163.307V46.914C384.749 32.625 373.086 21 358.749 21V21ZM164.318 159.057C164.318 177.939 148.957 193.3 130.075 193.3C111.193 193.3 95.832 177.939 95.832 159.057C95.832 140.175 111.193 124.814 130.075 124.814C148.957 124.814 164.318 140.175 164.318 159.057ZM374.749 75H136.75V47C136.75 38.163 143.913 31 152.75 31H358.75C367.587 31 374.75 38.163 374.75 47L374.749 75Z" fill="#475569"/>
<path d="M130.075 175C130.074 175 130.074 175 130.075 175C128.748 175 127.476 174.473 126.538 173.534L115.254 162.242C113.555 160.542 113.132 157.841 114.465 155.841C116.283 153.114 120.003 152.848 122.194 155.04L130.076 162.928L169.993 123.003C171.946 121.05 175.112 121.049 177.064 123.002C179.016 124.955 179.017 128.121 177.065 130.073L133.611 173.536C132.673 174.473 131.401 175 130.075 175V175Z" fill="#84CC16"/>
<path d="M244.751 262H172.612C170.209 262 168 260.391 167.527 258.035C166.882 254.821 169.324 252 172.423 252H244.76C246.093 252 247.347 251.481 248.29 250.537L297.441 201.386C300.271 198.557 304.032 196.999 308.031 196.999H332.932C336.91 196.999 340.725 198.579 343.538 201.392L368.695 226.549C369.629 227.484 370.873 227.999 372.194 227.999H402.746C405.149 227.999 407.358 229.608 407.831 231.964C408.476 235.178 406.034 237.999 402.935 237.999H372.259C368.28 237.999 364.464 236.418 361.651 233.605L336.51 208.464C335.572 207.526 334.3 206.999 332.973 206.999H308.033C306.707 206.999 305.435 207.526 304.497 208.463L255.354 257.606C252.543 260.42 248.728 262 244.751 262V262Z" fill="#2563EB"/>
<path d="M238.894 237H172.612C170.209 237 168 235.391 167.527 233.035C166.882 229.821 169.324 227 172.423 227H238.879C240.205 227 241.477 226.473 242.414 225.535L255.556 212.393C258.369 209.58 262.183 208 266.161 208H304.174C305.5 208 306.772 207.473 307.709 206.536L323.851 190.394C326.664 187.581 330.479 186.001 334.457 186.001H401.509C402.844 186.001 404.1 185.481 405.044 184.536L434.653 154.928C436.607 152.976 439.772 152.977 441.724 154.928C443.677 156.881 443.677 160.047 441.724 161.999L412.113 191.609C409.301 194.421 405.486 196.001 401.509 196.001H334.543C333.217 196.001 331.946 196.528 331.009 197.465L314.867 213.607C312.054 216.42 308.238 218.001 304.259 218.001H266.116C264.79 218.001 263.544 218.517 262.606 219.454L249.421 232.638C246.611 235.452 242.871 237 238.894 237V237Z" fill="#2563EB"/>
<path d="M341.682 155H320.688C321.384 153.382 321.75 151.624 321.75 149.811V143H329.471C330.924 143 332.329 142.309 333.098 141.075C335.561 137.121 332.776 133 329.03 133H321.75V125.228C321.75 123.486 322.571 121.803 324.037 120.862C328.982 117.687 334.201 121.322 333.993 126.065C333.917 127.795 334.95 129.413 336.501 130.182C340.269 132.049 343.999 129.355 343.999 125.792C343.999 113.756 330.743 104.756 318.063 112.63C314.073 115.108 311.75 119.571 311.75 124.268V133H309.9C308.447 133 307.042 133.691 306.273 134.925C303.81 138.879 306.595 143 310.341 143H311.75V150.275C311.75 150.835 311.53 151.38 311.114 151.756C307.554 154.977 307.612 160.885 312.358 164.095C313.233 164.687 314.272 165 315.329 165H342.622C343.665 165 344.668 164.534 345.307 163.71C348.509 159.577 345.629 155 341.682 155Z" fill="#60A5FA"/>
<path d="M252.993 133H251.75V123H257.535C259.938 123 262.147 121.391 262.62 119.035C263.265 115.821 260.823 113 257.724 113H251.75V111.071C251.75 108.663 250.135 106.446 247.771 105.983C244.563 105.355 241.75 107.766 241.75 110.826V113H240.786C233.333 113 226.769 118.437 225.933 125.843C224.948 134.576 231.867 142 240.506 142H241.749V152H235.964C233.561 152 231.352 153.609 230.879 155.965C230.234 159.179 232.676 162 235.775 162H241.749V163.929C241.749 166.337 243.364 168.554 245.728 169.017C248.936 169.645 251.749 167.234 251.749 164.174V162H252.713C260.166 162 266.73 156.563 267.565 149.157C268.551 140.424 261.633 133 252.993 133V133ZM240.75 132.54C237.849 132.54 235.757 130.446 235.757 127.873C235.757 125.3 237.851 123.206 240.424 123H241.751V132H240.751V132.54H240.75ZM252.71 152H251.75V143H252.948C255.567 143 257.669 145.248 257.429 147.915C257.216 150.275 255.08 152 252.71 152V152Z" fill="#60A5FA"/>
<path d="M283.404 148.86C282.123 148.86 280.842 148.371 279.865 147.392C277.914 145.437 277.917 142.272 279.871 140.321L282.166 138.03L279.871 135.738C277.916 133.787 277.913 130.621 279.865 128.667C281.816 126.712 284.982 126.709 286.936 128.661L292.776 134.491C293.716 135.429 294.244 136.702 294.244 138.03C294.244 139.358 293.716 140.631 292.776 141.569L286.936 147.399C285.96 148.374 284.681 148.86 283.404 148.86V148.86Z" fill="#60A5FA"/>
<path d="M422.811 97H419.75V93.939C419.75 91.536 418.141 89.327 415.785 88.854C412.571 88.209 409.75 90.651 409.75 93.75V97H406.689C404.286 97 402.077 98.609 401.604 100.965C400.959 104.179 403.401 107 406.5 107H409.75V110.061C409.75 112.464 411.359 114.673 413.715 115.146C416.929 115.791 419.75 113.349 419.75 110.25V107H423C426.099 107 428.541 104.179 427.896 100.965C427.424 98.609 425.214 97 422.811 97V97Z" fill="#94A3B8"/>
<path d="M451.811 372H448.75V368.939C448.75 366.536 447.141 364.327 444.785 363.854C441.571 363.209 438.75 365.651 438.75 368.75V372H435.689C433.286 372 431.077 373.609 430.604 375.965C429.959 379.179 432.401 382 435.5 382H438.75V385.061C438.75 387.464 440.359 389.673 442.715 390.146C445.929 390.791 448.75 388.349 448.75 385.25V382H452C455.099 382 457.541 379.179 456.896 375.965C456.423 373.609 454.214 372 451.811 372V372Z" fill="#64748B"/>
<path d="M428.602 330.679C427.144 330.679 425.68 330.458 424.248 330.013C420.523 328.855 417.473 326.316 415.658 322.863C413.844 319.41 413.482 315.457 414.64 311.733C415.798 308.009 418.337 304.958 421.79 303.144C425.243 301.33 429.197 300.968 432.92 302.126C436.645 303.284 439.696 305.823 441.51 309.276C443.325 312.729 443.686 316.682 442.528 320.406C441.37 324.13 438.83 327.181 435.378 328.995C433.252 330.112 430.937 330.679 428.602 330.679V330.679ZM428.587 311.466C426.624 311.466 424.802 312.732 424.189 314.702C423.824 315.876 423.938 317.122 424.51 318.21C425.082 319.298 426.044 320.099 427.218 320.464C429.638 321.216 432.226 319.86 432.98 317.436C433.345 316.262 433.231 315.016 432.659 313.928C432.087 312.84 431.126 312.039 429.952 311.674C429.498 311.533 429.039 311.466 428.587 311.466V311.466Z" fill="#94A3B8"/>
<path d="M62.3419 266.126C60.8839 266.126 59.4199 265.905 57.9879 265.46C54.2639 264.302 51.2129 261.763 49.3989 258.31C47.5839 254.857 47.223 250.905 48.381 247.18C49.539 243.455 52.0779 240.404 55.5309 238.59C58.9829 236.776 62.936 236.414 66.661 237.572C74.349 239.963 78.6599 248.164 76.2689 255.852C75.1109 259.576 72.572 262.627 69.119 264.442C66.992 265.56 64.6769 266.126 62.3419 266.126V266.126ZM62.318 246.911C61.582 246.911 60.8519 247.09 60.1819 247.442C59.0939 248.014 58.293 248.976 57.928 250.15C57.175 252.574 58.533 255.159 60.956 255.912C62.131 256.276 63.3759 256.163 64.4639 255.591C65.5519 255.019 66.353 254.058 66.718 252.884C67.471 250.46 66.1129 247.875 63.6889 247.121C63.2389 246.981 62.778 246.911 62.318 246.911V246.911Z" fill="#94A3B8"/>
<path d="M98.0859 293.965C96.6529 293.965 95.1969 293.752 93.7589 293.305C86.0699 290.914 81.7599 282.714 84.1509 275.025C85.3089 271.3 87.8479 268.25 91.3009 266.435C94.7539 264.62 98.7069 264.258 102.431 265.417C106.156 266.575 109.206 269.114 111.021 272.567C112.836 276.02 113.197 279.972 112.039 283.697C110.096 289.948 104.312 293.965 98.0859 293.965V293.965ZM98.0899 274.756C97.3539 274.756 96.6239 274.935 95.9539 275.287C94.8659 275.859 94.0649 276.821 93.6999 277.995C92.9469 280.418 94.3049 283.004 96.7279 283.757C99.1479 284.507 101.735 283.152 102.49 280.728C102.855 279.554 102.741 278.309 102.169 277.22C101.597 276.132 100.635 275.331 99.4609 274.966C99.0109 274.826 98.5489 274.756 98.0899 274.756V274.756Z" fill="#94A3B8"/>
</g>
<defs>
<clipPath id="clip0">
<rect width="512" height="512" fill="white"/>
</clipPath>
</defs>
</svg>
