<svg width="107" height="126" viewBox="0 0 107 126" fill="none" xmlns="http://www.w3.org/2000/svg">
<circle cx="53" cy="63" r="41" fill="#C7E589"/>
<path d="M21.0125 49H9.1125L37.0125 12.9L64.9125 49H53.0125C51.3125 49 50.0125 50.3 50.0125 52V62C50.0125 63.7 51.3125 65 53.0125 65C54.7125 65 56.0125 63.7 56.0125 62V55H71.0125C72.1125 55 73.2125 54.3 73.7125 53.3C74.2125 52.3 74.1125 51 73.4125 50.1L39.4125 6.1C38.8125 5.4 37.9125 5 37.0125 5C36.1125 5 35.2125 5.4 34.6125 6.2L0.6125 50.2C-0.0874999 51.1 -0.1875 52.3 0.3125 53.4C0.8125 54.4 1.8125 55.1 3.0125 55.1H18.0125V103.1C18.0125 104.8 19.3125 106.1 21.0125 106.1C22.7125 106.1 24.0125 104.8 24.0125 103.1V52C24.0125 50.3 22.7125 49 21.0125 49Z" fill="#253209"/>
<path d="M105.713 72.7C105.213 71.7 104.213 71 103.013 71H88.0125V16C88.0125 14.3 86.7125 13 85.0125 13C83.3125 13 82.0125 14.3 82.0125 16V74C82.0125 75.7 83.3125 77 85.0125 77H96.9125L69.0125 113.1L41.1125 77H53.0125C54.7125 77 56.0125 75.7 56.0125 74C56.0125 72.3 54.7125 71 53.0125 71H35.0125C33.9125 71 32.8125 71.7 32.3125 72.7C31.8125 73.7 31.9125 75 32.6125 75.9L66.6125 119.9C67.2125 120.6 68.0125 121.1 69.0125 121.1C70.0125 121.1 70.8125 120.7 71.4125 119.9L105.413 75.9C106.113 74.9 106.213 73.7 105.713 72.7Z" fill="#253209"/>
<path d="M69.0125 28C70.7125 28 72.0125 26.7 72.0125 25V13C72.0125 11.3 70.7125 10 69.0125 10C67.3125 10 66.0125 11.3 66.0125 13V25C66.0125 26.7 67.3125 28 69.0125 28Z" fill="#253209"/>
<path d="M36.0125 94C34.3125 94 33.0125 95.3 33.0125 97V110C33.0125 111.7 34.3125 113 36.0125 113C37.7125 113 39.0125 111.7 39.0125 110V97C39.0125 95.3 37.7125 94 36.0125 94Z" fill="#253209"/>
<path d="M36.0125 126C37.6694 126 39.0125 124.657 39.0125 123C39.0125 121.343 37.6694 120 36.0125 120C34.3556 120 33.0125 121.343 33.0125 123C33.0125 124.657 34.3556 126 36.0125 126Z" fill="#253209"/>
<path d="M85.0125 6C86.6693 6 88.0125 4.65685 88.0125 3C88.0125 1.34315 86.6693 0 85.0125 0C83.3556 0 82.0125 1.34315 82.0125 3C82.0125 4.65685 83.3556 6 85.0125 6Z" fill="#253209"/>
</svg>
